# Generated diagnostic geometry; +Z muzzle, +Y up; 16 units = 1 block
o frame
v -1 -1 -3
v 1 -1 -3
v 1 0 -3
v -1 0 -3
v -1 -1 5
v 1 -1 5
v 1 0 5
v -1 0 5
f 1 4 3 2
f 5 6 7 8
f 1 2 6 5
f 4 8 7 3
f 1 5 8 4
f 2 3 7 6
v -1 -6 -3
v 1 -6 -3
v 1 -1 -3
v -1 -1 -3
v -1 -6 -0.5
v 1 -6 -0.5
v 1 -1 -0.5
v -1 -1 -0.5
f 9 12 11 10
f 13 14 15 16
f 9 10 14 13
f 12 16 15 11
f 9 13 16 12
f 10 11 15 14
v -0.7 -3 -0.5
v 0.7 -3 -0.5
v 0.7 -2.5 -0.5
v -0.7 -2.5 -0.5
v -0.7 -3 2
v 0.7 -3 2
v 0.7 -2.5 2
v -0.7 -2.5 2
f 17 20 19 18
f 21 22 23 24
f 17 18 22 21
f 20 24 23 19
f 17 21 24 20
f 18 19 23 22
